<?xml version="1.0" encoding="UTF-8" standalone="no"?>
<svg width="180px" height="180px" viewBox="0 0 180 180" version="1.1" xmlns="http://www.w3.org/2000/svg" xmlns:xlink="http://www.w3.org/1999/xlink">
    <!-- Generator: Sketch 39.1 (31720) - http://www.bohemiancoding.com/sketch -->
    <title>rufjwu-logo</title>
    <desc>Created with Sketch.</desc>
    <defs></defs>
    <g stroke="none" stroke-width="1" fill="none" fill-rule="evenodd">
        <g>
            <circle fill="#2E477D" cx="90" cy="90" r="90"></circle>
            <polygon fill="#B1BEDA" points="85.8651797 79.3377952 152.590819 79.3377952 147.768331 92.4269322 152.590819 105.511648 85.8651797 105.511648"></polygon>
            <g transform="translate(95.472575, 86.286909)" fill="#2E477D">
                <path d="M0.899726185,9.60407963 L2.43279771,7.89857901 C3.06503773,8.59382197 3.68290866,9.00389374 4.45552365,9.00389374 C5.37293487,9.00389374 5.94106664,8.45123637 5.94106664,7.17128192 L5.94106664,0.0431072742 L8.43907791,0.0431072742 L8.43907791,7.2818134 C8.43907791,8.59492729 8.05884965,9.57423613 7.39676613,10.237425 C6.71478694,10.9171935 5.72110901,11.2642623 4.52073722,11.2642623 C2.79534094,11.263157 1.66018271,10.5049111 0.899726185,9.60407963 L0.899726185,9.60407963 Z"></path>
                <polygon points="11.0144612 0.0431072742 13.619688 0.0431072742 15.9121108 7.53382515 18.392437 0.0110531472 20.4781659 0.0110531472 22.9607027 7.53382515 25.2509149 0.0431072742 27.794244 0.0431072742 24.0184889 11.1846797 21.9007059 11.1846797 19.4026947 3.94818419 16.9046834 11.1846797 14.789111 11.1846797"></polygon>
                <path d="M30.368522,6.36661281 L30.368522,0.0431072742 L32.8013197,0.0431072742 L32.8013197,6.30139924 C32.8013197,8.10416755 33.7032565,9.03594786 35.1887995,9.03594786 C36.6765531,9.03594786 37.5740687,8.13511636 37.5740687,6.38208721 L37.5740687,0.0442125889 L40.0068664,0.0442125889 L40.0068664,6.28703015 C40.0068664,9.63723907 38.1267261,11.2797368 35.1556401,11.2797368 C32.1845541,11.2797368 30.368522,9.62176467 30.368522,6.36661281 L30.368522,6.36661281 Z"></path>
            </g>
            <polygon fill="#FFFFFF" points="88.068072 99.8668056 27.3022898 99.8668056 32.1225673 86.7820899 27.3022898 73.6940582 88.0691773 73.6940582 88.0691773 99.8668056"></polygon>
            <polygon fill="#7D8FB7" points="88.068072 99.8668056 85.8651797 105.511648 85.8651797 99.8668056"></polygon>
            <g transform="translate(42.417469, 80.760335)" fill="#2E477D">
                <path d="M0.666504778,0.227694833 L5.72331964,0.227694833 C7.12927997,0.227694833 8.2202256,0.622292189 8.94641737,1.34958928 C9.5642883,1.96635489 9.8947774,2.83513227 9.8947774,3.87854936 L9.8947774,3.90949818 C9.8947774,5.69568677 8.93094296,6.81758121 7.52387732,7.33928976 L10.2252665,11.2907899 L7.38018641,11.2907899 L5.01039164,7.74936152 L4.97944283,7.74936152 L3.09930248,7.74936152 L3.09930248,11.2907899 L0.665399463,11.2907899 L0.665399463,0.227694833 L0.666504778,0.227694833 Z M5.56636495,5.6006297 C6.75126233,5.6006297 7.42992557,4.96838968 7.42992557,4.03550405 L7.42992557,4.00344993 C7.42992557,2.96003283 6.7037338,2.42284987 5.51883641,2.42284987 L3.10151311,2.42284987 L3.10151311,5.59952439 L5.56636495,5.59952439 L5.56636495,5.6006297 Z"></path>
                <path d="M12.8647581,6.54898974 L12.8647581,0.227694833 L15.2975558,0.227694833 L15.2975558,6.4859868 C15.2975558,8.28654448 16.1983873,9.21943011 17.6839303,9.21943011 C19.1705786,9.21943011 20.0714101,8.31970392 20.0714101,6.56446414 L20.0714101,0.227694833 L22.5042078,0.227694833 L22.5042078,6.46940708 C22.5042078,9.819616 20.6240674,11.4654296 17.6540868,11.4654296 C14.6841061,11.4654296 12.8647581,9.80524691 12.8647581,6.54898974 L12.8647581,6.54898974 Z"></path>
                <polygon points="25.9317887 0.227694833 34.3553922 0.227694833 34.3553922 2.44053491 28.3667971 2.44053491 28.3667971 4.79485527 33.6446749 4.79485527 33.6446749 7.00659003 28.3667971 7.00659003 28.3667971 11.2896846 25.932894 11.2896846 25.932894 0.227694833"></polygon>
            </g>
        </g>
    </g>
</svg>